<svg width="59" height="55" viewBox="0 0 59 55" version="1.1" xmlns="http://www.w3.org/2000/svg" xmlns:xlink="http://www.w3.org/1999/xlink">
<title>NoRocketLab-Icon</title>
<desc>Created using Figma</desc>
<g id="Canvas" transform="translate(-34 -37)">
<g id="NoRocketLab-Icon" filter="url(#filter0_d)">
<use xlink:href="#path0_fill" transform="matrix(0.707107 0.707107 -0.707107 0.707107 50 30)" fill="#FFFFFF"/>
</g>
</g>
<defs>
<filter id="filter0_d" filterUnits="userSpaceOnUse" x="34" y="37" width="59" height="55" color-interpolation-filters="sRGB">
<feFlood flood-opacity="0" result="BackgroundImageFix"/>
<feColorMatrix in="SourceAlpha" type="matrix" values="0 0 0 0 0 0 0 0 0 0 0 0 0 0 0 0 0 0 255 0"/>
<feOffset dx="0" dy="2"/>
<feGaussianBlur stdDeviation="2"/>
<feColorMatrix type="matrix" values="0 0 0 0 0 0 0 0 0 0 0 0 0 0 0 0 0 0 0.25 0"/>
<feBlend mode="normal" in2="BackgroundImageFix" result="effect1_dropShadow"/>
<feBlend mode="normal" in="SourceGraphic" in2="effect1_dropShadow" result="shape"/>
</filter>
<path id="path0_fill" fill-rule="evenodd" d="M 17.3384 28.113L 46.7719 13.1158C 46.7548 12.8662 46.7461 12.6142 46.7461 12.3603C 46.7461 7.02072 50.5861 2.57792 55.6554 1.64214C 54.9434 1.52278 54.2119 1.46067 53.4659 1.46067C 49.3909 1.46067 45.749 3.31434 43.3374 6.22439C 38.3717 2.32528 32.1113 1.07896e-05 25.3077 0C 14.4935 8.0922e-06 5.05164 5.87472 0 14.6065C 3.76106 21.1075 9.95568 26.0247 17.3384 28.113ZM 14.0307 14.7526C 14.0307 16.2853 12.788 17.5278 11.2551 17.5278C 9.72221 17.5278 8.47956 16.2853 8.47956 14.7526C 8.47956 13.2198 9.72221 11.9773 11.2551 11.9773C 12.788 11.9773 14.0307 13.2198 14.0307 14.7526ZM 45.9916 15.9853L 42.4774 15.9853L 42.4774 19.499L 45.9916 19.499L 45.9916 15.9853ZM 39.4127 18.2421L 41.7557 18.2421L 41.7557 20.5849L 39.4127 20.5849L 39.4127 18.2421ZM 49.2129 19.0349L 46.8701 19.0349L 46.8701 21.3774L 49.2129 21.3774L 49.2129 19.0349ZM 42.4774 22.2562L 44.5274 22.2562L 44.5274 24.3059L 42.4774 24.3059L 42.4774 22.2562ZM 47.7486 24.3061L 46.2844 24.3061L 46.2844 25.7702L 47.7486 25.7702L 47.7486 24.3061ZM 28.7137 23.7204L 31.0565 23.7204L 31.0565 26.0629L 28.7137 26.0629L 28.7137 23.7204ZM 24.6139 26.9417L 22.564 26.9417L 22.564 28.9914L 24.6139 28.9914L 24.6139 26.9417ZM 27.2495 27.2345L 28.7137 27.2345L 28.7137 28.6986L 27.2495 28.6986L 27.2495 27.2345ZM 36.2643 20.4991L 33.3358 20.4991L 33.3358 23.4273L 36.2643 23.4273L 36.2643 20.4991ZM 37.9711 21.135L 40.3138 21.135L 40.3138 23.4775L 37.9711 23.4775L 37.9711 21.135ZM 35.1563 24.8918L 33.1064 24.8918L 33.1064 26.9415L 35.1563 26.9415L 35.1563 24.8918ZM 36.4358 24.5989L 37.9 24.5989L 37.9 26.063L 36.4358 26.063L 36.4358 24.5989ZM 27.3576 24.5989L 25.3077 24.5989L 25.3077 26.6486L 27.3576 26.6486L 27.3576 24.5989ZM 48.0415 22.549L 49.2128 22.549L 49.2128 23.7202L 48.0415 23.7202L 48.0415 22.549ZM 52.1413 25.4775L 50.9699 25.4775L 50.9699 26.6487L 52.1413 26.6487L 52.1413 25.4775Z"/>
</defs>
</svg>
