<svg width="97" height="86" viewBox="0 0 97 86" version="1.1" xmlns="http://www.w3.org/2000/svg" xmlns:xlink="http://www.w3.org/1999/xlink">
<title>ArrowMax</title>
<desc>Created using Figma</desc>
<g id="Canvas" transform="translate(-555 -1023)">
<g id="ArrowMax">
<g id="Arrow">
<use xlink:href="#path0_fill" transform="translate(555 1043)"/>
</g>
<g id="Max">
<use xlink:href="#path1_fill" transform="translate(627 1019)"/>
</g>
</g>
</g>
<defs>
<path id="path0_fill" fill-rule="evenodd" d="M 8 63.318L 8 65.9794L 0 62.5153L 8 59.0511L 8 62.3104C 73.1941 54.2095 85.7837 17.4271 84.0027 0.102295L 84.9973 0C 86.8463 17.9854 73.728 55.1941 8 63.318Z"/>
<path id="path1_fill" d="M 0.882 4.004L 1.764 4.004L 5.67 13.314L 5.698 13.314L 9.562 4.004L 10.444 4.004L 10.444 14L 9.828 14L 9.828 4.76L 9.8 4.76L 5.992 14L 5.376 14L 1.526 4.76L 1.498 4.76L 1.498 14L 0.882 14L 0.882 4.004ZM 16.8783 12.572L 16.8503 12.572C 16.7663 12.7867 16.645 12.992 16.4863 13.188C 16.3276 13.3747 16.1316 13.5427 15.8983 13.692C 15.6743 13.8413 15.4176 13.958 15.1283 14.042C 14.839 14.126 14.5216 14.168 14.1763 14.168C 13.411 14.168 12.8183 14.0047 12.3983 13.678C 11.9783 13.342 11.7683 12.8287 11.7683 12.138C 11.7683 11.718 11.8523 11.3773 12.0203 11.116C 12.1883 10.8453 12.3983 10.6353 12.6503 10.486C 12.9116 10.3273 13.1963 10.2153 13.5043 10.15C 13.8216 10.0847 14.125 10.038 14.4143 10.01L 15.2403 9.94C 15.623 9.912 15.9216 9.87 16.1363 9.814C 16.3603 9.74867 16.5283 9.66467 16.6403 9.562C 16.7523 9.45 16.8223 9.31 16.8503 9.142C 16.8783 8.974 16.8923 8.764 16.8923 8.512C 16.8923 8.316 16.855 8.134 16.7803 7.966C 16.7056 7.798 16.589 7.64867 16.4303 7.518C 16.2716 7.38733 16.0663 7.28467 15.8143 7.21C 15.5623 7.13533 15.2543 7.098 14.8903 7.098C 14.2463 7.098 13.7236 7.25667 13.3223 7.574C 12.9303 7.89133 12.7156 8.372 12.6783 9.016L 12.1463 9.016C 12.1836 8.22267 12.4356 7.63 12.9023 7.238C 13.3783 6.83667 14.0503 6.636 14.9183 6.636C 15.7863 6.636 16.4163 6.80867 16.8083 7.154C 17.2096 7.49 17.4103 7.93333 17.4103 8.484L 17.4103 12.67C 17.4103 12.7727 17.4103 12.8753 17.4103 12.978C 17.4196 13.0807 17.4383 13.174 17.4663 13.258C 17.4943 13.342 17.541 13.412 17.6063 13.468C 17.6716 13.5147 17.765 13.538 17.8863 13.538C 17.9796 13.538 18.1103 13.524 18.2783 13.496L 18.2783 13.944C 18.1383 13.9813 17.9936 14 17.8443 14C 17.6296 14 17.457 13.972 17.3263 13.916C 17.205 13.86 17.1116 13.7853 17.0463 13.692C 16.981 13.5987 16.9343 13.4913 16.9063 13.37C 16.8876 13.2393 16.8783 13.0993 16.8783 12.95L 16.8783 12.572ZM 16.8783 9.912C 16.7476 10.0707 16.547 10.178 16.2763 10.234C 16.015 10.29 15.721 10.332 15.3943 10.36L 14.4983 10.444C 14.237 10.472 13.9756 10.514 13.7143 10.57C 13.453 10.6167 13.215 10.7007 13.0003 10.822C 12.795 10.9433 12.627 11.1113 12.4963 11.326C 12.3656 11.5313 12.3003 11.802 12.3003 12.138C 12.3003 12.67 12.4683 13.0667 12.8043 13.328C 13.1403 13.58 13.6023 13.706 14.1903 13.706C 14.797 13.706 15.2776 13.5987 15.6323 13.384C 15.987 13.16 16.2576 12.908 16.4443 12.628C 16.631 12.3387 16.7476 12.0633 16.7943 11.802C 16.8503 11.5313 16.8783 11.3493 16.8783 11.256L 16.8783 9.912ZM 21.0643 10.22L 18.4323 6.804L 19.1743 6.804L 21.4283 9.814L 23.6963 6.804L 24.3823 6.804L 21.7783 10.22L 24.6203 14L 23.8923 14L 21.4283 10.626L 18.9083 14L 18.2363 14L 21.0643 10.22Z"/>
</defs>
</svg>
