<svg width="162" height="129" viewBox="0 0 162 129" version="1.1" xmlns="http://www.w3.org/2000/svg" xmlns:xlink="http://www.w3.org/1999/xlink">
<title>ArrowNotMax</title>
<desc>Created using Figma</desc>
<g id="Canvas" transform="translate(-1004 -1248)">
<g id="ArrowNotMax">
<g id="Union">
<use xlink:href="#path0_fill" transform="matrix(0.801788 -0.597608 0.597608 0.801788 1016 1322.76)"/>
</g>
<g id="Not Max, but some projects">
<use xlink:href="#path1_fill" transform="translate(1004 1244)"/>
</g>
</g>
</g>
<defs>
<path id="path0_fill" fill-rule="evenodd" d="M 8.13773 60.0671L 0 63.5908L 8.13777 67.1146L 8.13777 64.3987C 74.993 56.1351 88.3326 18.2894 86.4524 0L 85.4576 0.102285C 87.27 17.731 74.459 55.1505 8.13777 63.3911L 8.13773 60.0671Z"/>
<path id="path1_fill" d="M 0.882 4.004L 1.652 4.004L 7.966 13.174L 7.994 13.174L 7.994 4.004L 8.61 4.004L 8.61 14L 7.882 14L 1.526 4.76L 1.498 4.76L 1.498 14L 0.882 14L 0.882 4.004ZM 9.93628 10.402C 9.93628 9.88867 10.0063 9.408 10.1463 8.96C 10.2956 8.50267 10.5103 8.10133 10.7903 7.756C 11.0703 7.41067 11.4156 7.14 11.8263 6.944C 12.2369 6.73867 12.7083 6.636 13.2403 6.636C 13.7723 6.636 14.2436 6.73867 14.6543 6.944C 15.0649 7.14 15.4103 7.41067 15.6903 7.756C 15.9703 8.10133 16.1803 8.50267 16.3203 8.96C 16.4696 9.408 16.5443 9.88867 16.5443 10.402C 16.5443 10.9153 16.4696 11.4007 16.3203 11.858C 16.1803 12.3153 15.9703 12.7167 15.6903 13.062C 15.4103 13.398 15.0649 13.6687 14.6543 13.874C 14.2436 14.07 13.7723 14.168 13.2403 14.168C 12.7083 14.168 12.2369 14.07 11.8263 13.874C 11.4156 13.6687 11.0703 13.398 10.7903 13.062C 10.5103 12.7167 10.2956 12.3153 10.1463 11.858C 10.0063 11.4007 9.93628 10.9153 9.93628 10.402ZM 10.4683 10.402C 10.4683 10.8313 10.5289 11.2467 10.6503 11.648C 10.7716 12.04 10.9489 12.39 11.1823 12.698C 11.4156 13.006 11.7049 13.2533 12.0503 13.44C 12.3956 13.6173 12.7923 13.706 13.2403 13.706C 13.6883 13.706 14.0849 13.6173 14.4303 13.44C 14.7756 13.2533 15.0649 13.006 15.2983 12.698C 15.5316 12.39 15.7089 12.04 15.8303 11.648C 15.9516 11.2467 16.0123 10.8313 16.0123 10.402C 16.0123 9.97267 15.9516 9.562 15.8303 9.17C 15.7089 8.76867 15.5316 8.414 15.2983 8.106C 15.0649 7.798 14.7756 7.55533 14.4303 7.378C 14.0849 7.19133 13.6883 7.098 13.2403 7.098C 12.7923 7.098 12.3956 7.19133 12.0503 7.378C 11.7049 7.55533 11.4156 7.798 11.1823 8.106C 10.9489 8.414 10.7716 8.76867 10.6503 9.17C 10.5289 9.562 10.4683 9.97267 10.4683 10.402ZM 20.4378 7.266L 18.8698 7.266L 18.8698 12.292C 18.8698 12.5813 18.9025 12.81 18.9678 12.978C 19.0331 13.146 19.1311 13.2767 19.2618 13.37C 19.4018 13.454 19.5651 13.5053 19.7518 13.524C 19.9478 13.5427 20.1718 13.5473 20.4238 13.538L 20.4238 14C 20.1531 14.0187 19.8871 14.0187 19.6258 14C 19.3738 13.972 19.1498 13.902 18.9538 13.79C 18.7578 13.6687 18.5991 13.4913 18.4778 13.258C 18.3658 13.0247 18.3191 12.7027 18.3378 12.292L 18.3378 7.266L 17.0078 7.266L 17.0078 6.804L 18.3378 6.804L 18.3378 4.564L 18.8698 4.564L 18.8698 6.804L 20.4378 6.804L 20.4378 7.266ZM 25.4093 4.004L 26.2913 4.004L 30.1973 13.314L 30.2253 13.314L 34.0893 4.004L 34.9713 4.004L 34.9713 14L 34.3553 14L 34.3553 4.76L 34.3273 4.76L 30.5193 14L 29.9033 14L 26.0533 4.76L 26.0253 4.76L 26.0253 14L 25.4093 14L 25.4093 4.004ZM 41.4057 12.572L 41.3777 12.572C 41.2937 12.7867 41.1723 12.992 41.0137 13.188C 40.855 13.3747 40.659 13.5427 40.4257 13.692C 40.2017 13.8413 39.945 13.958 39.6557 14.042C 39.3663 14.126 39.049 14.168 38.7037 14.168C 37.9383 14.168 37.3457 14.0047 36.9257 13.678C 36.5057 13.342 36.2957 12.8287 36.2957 12.138C 36.2957 11.718 36.3797 11.3773 36.5477 11.116C 36.7157 10.8453 36.9257 10.6353 37.1777 10.486C 37.439 10.3273 37.7237 10.2153 38.0317 10.15C 38.349 10.0847 38.6523 10.038 38.9417 10.01L 39.7677 9.94C 40.1503 9.912 40.449 9.87 40.6637 9.814C 40.8877 9.74867 41.0557 9.66467 41.1677 9.562C 41.2797 9.45 41.3497 9.31 41.3777 9.142C 41.4057 8.974 41.4197 8.764 41.4197 8.512C 41.4197 8.316 41.3823 8.134 41.3077 7.966C 41.233 7.798 41.1163 7.64867 40.9577 7.518C 40.799 7.38733 40.5937 7.28467 40.3417 7.21C 40.0897 7.13533 39.7817 7.098 39.4177 7.098C 38.7737 7.098 38.251 7.25667 37.8497 7.574C 37.4577 7.89133 37.243 8.372 37.2057 9.016L 36.6737 9.016C 36.711 8.22267 36.963 7.63 37.4297 7.238C 37.9057 6.83667 38.5777 6.636 39.4457 6.636C 40.3137 6.636 40.9437 6.80867 41.3357 7.154C 41.737 7.49 41.9377 7.93333 41.9377 8.484L 41.9377 12.67C 41.9377 12.7727 41.9377 12.8753 41.9377 12.978C 41.947 13.0807 41.9657 13.174 41.9937 13.258C 42.0217 13.342 42.0683 13.412 42.1337 13.468C 42.199 13.5147 42.2923 13.538 42.4137 13.538C 42.507 13.538 42.6377 13.524 42.8057 13.496L 42.8057 13.944C 42.6657 13.9813 42.521 14 42.3717 14C 42.157 14 41.9843 13.972 41.8537 13.916C 41.7323 13.86 41.639 13.7853 41.5737 13.692C 41.5083 13.5987 41.4617 13.4913 41.4337 13.37C 41.415 13.2393 41.4057 13.0993 41.4057 12.95L 41.4057 12.572ZM 41.4057 9.912C 41.275 10.0707 41.0743 10.178 40.8037 10.234C 40.5423 10.29 40.2483 10.332 39.9217 10.36L 39.0257 10.444C 38.7643 10.472 38.503 10.514 38.2417 10.57C 37.9803 10.6167 37.7423 10.7007 37.5277 10.822C 37.3223 10.9433 37.1543 11.1113 37.0237 11.326C 36.893 11.5313 36.8277 11.802 36.8277 12.138C 36.8277 12.67 36.9957 13.0667 37.3317 13.328C 37.6677 13.58 38.1297 13.706 38.7177 13.706C 39.3243 13.706 39.805 13.5987 40.1597 13.384C 40.5143 13.16 40.785 12.908 40.9717 12.628C 41.1583 12.3387 41.275 12.0633 41.3217 11.802C 41.3777 11.5313 41.4057 11.3493 41.4057 11.256L 41.4057 9.912ZM 45.5917 10.22L 42.9597 6.804L 43.7017 6.804L 45.9557 9.814L 48.2237 6.804L 48.9097 6.804L 46.3057 10.22L 49.1477 14L 48.4197 14L 45.9557 10.626L 43.4357 14L 42.7637 14L 45.5917 10.22ZM 50.6504 12.558L 51.3644 12.558L 51.3644 14C 51.3644 14.1867 51.3504 14.3687 51.3224 14.546C 51.2944 14.7327 51.243 14.9053 51.1684 15.064C 51.103 15.2227 51.0097 15.3627 50.8884 15.484C 50.7764 15.6053 50.6364 15.6987 50.4684 15.764L 50.4684 15.302C 50.571 15.2553 50.6504 15.176 50.7064 15.064C 50.7717 14.9613 50.823 14.8447 50.8604 14.714C 50.8977 14.5927 50.921 14.4667 50.9304 14.336C 50.9397 14.2053 50.9444 14.0933 50.9444 14L 50.6504 14L 50.6504 12.558ZM 57.7713 4.004L 58.3033 4.004L 58.3033 8.33L 58.3313 8.33C 58.434 8.05 58.5787 7.80733 58.7653 7.602C 58.952 7.38733 59.1667 7.21 59.4093 7.07C 59.652 6.92067 59.9133 6.81333 60.1933 6.748C 60.4733 6.67333 60.7627 6.636 61.0613 6.636C 61.5933 6.636 62.0507 6.72933 62.4333 6.916C 62.8253 7.10267 63.152 7.35933 63.4133 7.686C 63.6747 8.01267 63.866 8.39533 63.9873 8.834C 64.118 9.26333 64.1833 9.73 64.1833 10.234C 64.1833 11.0927 64.0667 11.7833 63.8333 12.306C 63.6 12.8193 63.32 13.216 62.9933 13.496C 62.6667 13.7667 62.326 13.944 61.9713 14.028C 61.6167 14.1213 61.3133 14.168 61.0613 14.168C 60.5853 14.168 60.1793 14.0933 59.8433 13.944C 59.5167 13.7947 59.246 13.622 59.0313 13.426C 58.8167 13.2207 58.6533 13.02 58.5413 12.824C 58.4293 12.628 58.3593 12.4833 58.3313 12.39L 58.3033 12.39L 58.3033 14L 57.7713 14L 57.7713 4.004ZM 61.0613 13.706C 61.5373 13.706 61.9387 13.6033 62.2653 13.398C 62.592 13.1927 62.858 12.9267 63.0633 12.6C 63.2687 12.264 63.418 11.8907 63.5113 11.48C 63.6047 11.06 63.6513 10.6447 63.6513 10.234C 63.6513 9.83267 63.5953 9.44533 63.4833 9.072C 63.3807 8.69867 63.2173 8.36733 62.9933 8.078C 62.7787 7.77933 62.508 7.54133 62.1813 7.364C 61.864 7.18667 61.4907 7.098 61.0613 7.098C 60.5947 7.098 60.1887 7.17733 59.8433 7.336C 59.498 7.49467 59.2133 7.714 58.9893 7.994C 58.7653 8.274 58.5973 8.60533 58.4853 8.988C 58.3733 9.37067 58.3173 9.786 58.3173 10.234C 58.3173 10.6727 58.3687 11.102 58.4713 11.522C 58.574 11.942 58.7327 12.3153 58.9473 12.642C 59.1713 12.9593 59.456 13.216 59.8013 13.412C 60.1467 13.608 60.5667 13.706 61.0613 13.706ZM 71.1226 14L 70.5906 14L 70.5906 12.46L 70.5626 12.46C 70.4693 12.7307 70.334 12.9733 70.1566 13.188C 69.9886 13.3933 69.788 13.5707 69.5546 13.72C 69.3306 13.8693 69.0833 13.9813 68.8126 14.056C 68.542 14.1307 68.2666 14.168 67.9866 14.168C 67.5666 14.168 67.2073 14.1167 66.9086 14.014C 66.6193 13.9113 66.3813 13.776 66.1946 13.608C 66.008 13.44 65.8586 13.2533 65.7466 13.048C 65.644 12.8333 65.5693 12.6187 65.5226 12.404C 65.476 12.1893 65.448 11.984 65.4386 11.788C 65.4293 11.5827 65.4246 11.4053 65.4246 11.256L 65.4246 6.804L 65.9566 6.804L 65.9566 11.354C 65.9566 11.5407 65.9706 11.7693 65.9986 12.04C 66.0266 12.3013 66.106 12.558 66.2366 12.81C 66.3766 13.0527 66.582 13.2627 66.8526 13.44C 67.1233 13.6173 67.506 13.706 68.0006 13.706C 68.402 13.706 68.7613 13.6313 69.0786 13.482C 69.4053 13.3327 69.6806 13.1273 69.9046 12.866C 70.1286 12.5953 70.2966 12.278 70.4086 11.914C 70.53 11.5407 70.5906 11.1347 70.5906 10.696L 70.5906 6.804L 71.1226 6.804L 71.1226 14ZM 75.3304 7.266L 73.7624 7.266L 73.7624 12.292C 73.7624 12.5813 73.7951 12.81 73.8604 12.978C 73.9257 13.146 74.0237 13.2767 74.1544 13.37C 74.2944 13.454 74.4577 13.5053 74.6444 13.524C 74.8404 13.5427 75.0644 13.5473 75.3164 13.538L 75.3164 14C 75.0457 14.0187 74.7797 14.0187 74.5184 14C 74.2664 13.972 74.0424 13.902 73.8464 13.79C 73.6504 13.6687 73.4917 13.4913 73.3704 13.258C 73.2584 13.0247 73.2117 12.7027 73.2304 12.292L 73.2304 7.266L 71.9004 7.266L 71.9004 6.804L 73.2304 6.804L 73.2304 4.564L 73.7624 4.564L 73.7624 6.804L 75.3304 6.804L 75.3304 7.266ZM 80.4559 11.606C 80.4746 11.942 80.5493 12.2407 80.6799 12.502C 80.8106 12.754 80.9786 12.9733 81.1839 13.16C 81.3986 13.3373 81.6459 13.4727 81.9259 13.566C 82.2059 13.6593 82.5093 13.706 82.8359 13.706C 83.0693 13.706 83.3166 13.6873 83.5779 13.65C 83.8486 13.6033 84.0959 13.524 84.3199 13.412C 84.5533 13.3 84.7446 13.146 84.8939 12.95C 85.0433 12.7447 85.1179 12.488 85.1179 12.18C 85.1179 11.7787 84.9966 11.4753 84.7539 11.27C 84.5113 11.0647 84.2033 10.906 83.8299 10.794C 83.4659 10.682 83.0693 10.5933 82.6399 10.528C 82.2199 10.4533 81.8233 10.346 81.4499 10.206C 81.0859 10.066 80.7826 9.87 80.5399 9.618C 80.2973 9.35667 80.1759 8.97867 80.1759 8.484C 80.1759 8.12933 80.2553 7.83533 80.4139 7.602C 80.5726 7.35933 80.7733 7.168 81.0159 7.028C 81.2679 6.888 81.5479 6.79 81.8559 6.734C 82.1639 6.66867 82.4719 6.636 82.7799 6.636C 83.1533 6.636 83.5033 6.678 83.8299 6.762C 84.1566 6.846 84.4366 6.98133 84.6699 7.168C 84.9126 7.35467 85.0993 7.59267 85.2299 7.882C 85.3699 8.17133 85.4399 8.52133 85.4399 8.932L 84.9079 8.932C 84.9079 8.60533 84.8519 8.32533 84.7399 8.092C 84.6373 7.85867 84.4879 7.672 84.2919 7.532C 84.1053 7.38267 83.8813 7.27533 83.6199 7.21C 83.3586 7.13533 83.0786 7.098 82.7799 7.098C 82.5373 7.098 82.2899 7.12133 82.0379 7.168C 81.7953 7.21467 81.5759 7.294 81.3799 7.406C 81.1839 7.518 81.0206 7.66267 80.8899 7.84C 80.7686 8.01733 80.7079 8.232 80.7079 8.484C 80.7079 8.77333 80.7779 9.00667 80.9179 9.184C 81.0579 9.36133 81.2399 9.506 81.4639 9.618C 81.6973 9.72067 81.9539 9.80467 82.2339 9.87C 82.5233 9.93533 82.8126 10.0007 83.1019 10.066C 83.4566 10.1313 83.7879 10.2107 84.0959 10.304C 84.4133 10.388 84.6839 10.5093 84.9079 10.668C 85.1413 10.8173 85.3233 11.0133 85.4539 11.256C 85.5846 11.4987 85.6499 11.8067 85.6499 12.18C 85.6499 12.572 85.5613 12.894 85.3839 13.146C 85.2066 13.398 84.9826 13.6033 84.7119 13.762C 84.4413 13.9113 84.1379 14.014 83.8019 14.07C 83.4753 14.1353 83.1533 14.168 82.8359 14.168C 82.4253 14.168 82.0426 14.112 81.6879 14C 81.3426 13.8973 81.0393 13.7387 80.7779 13.524C 80.5166 13.3 80.3113 13.0293 80.1619 12.712C 80.0126 12.3947 79.9333 12.026 79.9239 11.606L 80.4559 11.606ZM 86.6082 10.402C 86.6082 9.88867 86.6782 9.408 86.8182 8.96C 86.9675 8.50267 87.1822 8.10133 87.4622 7.756C 87.7422 7.41067 88.0875 7.14 88.4982 6.944C 88.9088 6.73867 89.3802 6.636 89.9122 6.636C 90.4442 6.636 90.9155 6.73867 91.3262 6.944C 91.7368 7.14 92.0822 7.41067 92.3622 7.756C 92.6422 8.10133 92.8522 8.50267 92.9922 8.96C 93.1415 9.408 93.2162 9.88867 93.2162 10.402C 93.2162 10.9153 93.1415 11.4007 92.9922 11.858C 92.8522 12.3153 92.6422 12.7167 92.3622 13.062C 92.0822 13.398 91.7368 13.6687 91.3262 13.874C 90.9155 14.07 90.4442 14.168 89.9122 14.168C 89.3802 14.168 88.9088 14.07 88.4982 13.874C 88.0875 13.6687 87.7422 13.398 87.4622 13.062C 87.1822 12.7167 86.9675 12.3153 86.8182 11.858C 86.6782 11.4007 86.6082 10.9153 86.6082 10.402ZM 87.1402 10.402C 87.1402 10.8313 87.2008 11.2467 87.3222 11.648C 87.4435 12.04 87.6208 12.39 87.8542 12.698C 88.0875 13.006 88.3768 13.2533 88.7222 13.44C 89.0675 13.6173 89.4642 13.706 89.9122 13.706C 90.3602 13.706 90.7568 13.6173 91.1022 13.44C 91.4475 13.2533 91.7368 13.006 91.9702 12.698C 92.2035 12.39 92.3808 12.04 92.5022 11.648C 92.6235 11.2467 92.6842 10.8313 92.6842 10.402C 92.6842 9.97267 92.6235 9.562 92.5022 9.17C 92.3808 8.76867 92.2035 8.414 91.9702 8.106C 91.7368 7.798 91.4475 7.55533 91.1022 7.378C 90.7568 7.19133 90.3602 7.098 89.9122 7.098C 89.4642 7.098 89.0675 7.19133 88.7222 7.378C 88.3768 7.55533 88.0875 7.798 87.8542 8.106C 87.6208 8.414 87.4435 8.76867 87.3222 9.17C 87.2008 9.562 87.1402 9.97267 87.1402 10.402ZM 94.4777 6.804L 95.0097 6.804L 95.0097 8.274L 95.0377 8.274C 95.0937 8.05 95.1917 7.84 95.3317 7.644C 95.4717 7.43867 95.6397 7.26133 95.8357 7.112C 96.041 6.96267 96.265 6.846 96.5077 6.762C 96.7597 6.678 97.021 6.636 97.2917 6.636C 97.637 6.636 97.9357 6.68267 98.1877 6.776C 98.4397 6.86 98.6544 6.97667 98.8317 7.126C 99.009 7.266 99.149 7.42933 99.2517 7.616C 99.3544 7.79333 99.4244 7.97533 99.4617 8.162L 99.4897 8.162C 99.7044 7.658 99.989 7.28 100.344 7.028C 100.708 6.76667 101.184 6.636 101.772 6.636C 102.098 6.636 102.397 6.68733 102.668 6.79C 102.948 6.88333 103.186 7.03267 103.382 7.238C 103.587 7.434 103.746 7.686 103.858 7.994C 103.97 8.302 104.026 8.666 104.026 9.086L 104.026 14L 103.494 14L 103.494 9.072C 103.494 8.61467 103.424 8.25533 103.284 7.994C 103.144 7.73267 102.976 7.53667 102.78 7.406C 102.593 7.266 102.402 7.182 102.206 7.154C 102.019 7.11667 101.874 7.098 101.772 7.098C 101.445 7.098 101.142 7.154 100.862 7.266C 100.591 7.378 100.353 7.546 100.148 7.77C 99.9517 7.994 99.7977 8.274 99.6857 8.61C 99.5737 8.93667 99.5177 9.31467 99.5177 9.744L 99.5177 14L 98.9857 14L 98.9857 9.072C 98.9857 8.624 98.9157 8.26933 98.7757 8.008C 98.645 7.73733 98.4864 7.53667 98.2997 7.406C 98.1224 7.27533 97.9357 7.19133 97.7397 7.154C 97.553 7.11667 97.4037 7.098 97.2917 7.098C 97.0397 7.098 96.7784 7.14933 96.5077 7.252C 96.237 7.35467 95.9897 7.51333 95.7657 7.728C 95.5417 7.94267 95.3597 8.218 95.2197 8.554C 95.0797 8.89 95.0097 9.28667 95.0097 9.744L 95.0097 14L 94.4777 14L 94.4777 6.804ZM 105.816 10.472L 105.816 10.556C 105.816 10.976 105.872 11.3773 105.984 11.76C 106.096 12.1427 106.26 12.4787 106.474 12.768C 106.698 13.0573 106.974 13.286 107.3 13.454C 107.636 13.622 108.024 13.706 108.462 13.706C 109.181 13.706 109.75 13.5193 110.17 13.146C 110.59 12.7633 110.88 12.236 111.038 11.564L 111.57 11.564C 111.412 12.404 111.066 13.048 110.534 13.496C 110.012 13.944 109.316 14.168 108.448 14.168C 107.916 14.168 107.45 14.0747 107.048 13.888C 106.656 13.692 106.325 13.4307 106.054 13.104C 105.793 12.768 105.597 12.376 105.466 11.928C 105.336 11.4707 105.27 10.9807 105.27 10.458C 105.27 9.954 105.336 9.47333 105.466 9.016C 105.606 8.54933 105.812 8.14333 106.082 7.798C 106.353 7.44333 106.689 7.16333 107.09 6.958C 107.501 6.74333 107.982 6.636 108.532 6.636C 109.036 6.636 109.48 6.72933 109.862 6.916C 110.254 7.10267 110.581 7.35933 110.842 7.686C 111.104 8.00333 111.3 8.37667 111.43 8.806C 111.57 9.226 111.64 9.67867 111.64 10.164C 111.64 10.2107 111.636 10.2667 111.626 10.332C 111.626 10.388 111.626 10.4347 111.626 10.472L 105.816 10.472ZM 111.094 10.01C 111.076 9.618 111.01 9.24933 110.898 8.904C 110.786 8.54933 110.618 8.24133 110.394 7.98C 110.18 7.70933 109.914 7.49467 109.596 7.336C 109.288 7.17733 108.934 7.098 108.532 7.098C 108.103 7.098 107.725 7.182 107.398 7.35C 107.072 7.50867 106.796 7.72333 106.572 7.994C 106.348 8.25533 106.176 8.56333 106.054 8.918C 105.933 9.27267 105.858 9.63667 105.83 10.01L 111.094 10.01ZM 117.421 8.456L 117.449 8.456C 117.505 8.27867 117.598 8.08267 117.729 7.868C 117.859 7.65333 118.032 7.45733 118.247 7.28C 118.461 7.09333 118.718 6.93933 119.017 6.818C 119.325 6.69667 119.675 6.636 120.067 6.636C 120.617 6.636 121.093 6.73867 121.495 6.944C 121.905 7.14933 122.241 7.42467 122.503 7.77C 122.773 8.11533 122.974 8.51667 123.105 8.974C 123.235 9.43133 123.301 9.912 123.301 10.416C 123.301 10.9667 123.235 11.4707 123.105 11.928C 122.974 12.3853 122.773 12.782 122.503 13.118C 122.241 13.4447 121.905 13.7013 121.495 13.888C 121.093 14.0747 120.617 14.168 120.067 14.168C 119.469 14.168 118.937 14.0373 118.471 13.776C 118.004 13.5147 117.663 13.09 117.449 12.502L 117.421 12.502L 117.421 16.576L 116.889 16.576L 116.889 6.804L 117.421 6.804L 117.421 8.456ZM 120.067 13.706C 120.533 13.706 120.935 13.6173 121.271 13.44C 121.616 13.2627 121.896 13.0247 122.111 12.726C 122.335 12.4273 122.498 12.082 122.601 11.69C 122.713 11.2887 122.769 10.864 122.769 10.416C 122.769 10.0053 122.717 9.604 122.615 9.212C 122.512 8.81067 122.353 8.456 122.139 8.148C 121.924 7.83067 121.644 7.57867 121.299 7.392C 120.963 7.196 120.552 7.098 120.067 7.098C 119.591 7.098 119.185 7.19133 118.849 7.378C 118.513 7.56467 118.237 7.812 118.023 8.12C 117.817 8.428 117.668 8.78267 117.575 9.184C 117.481 9.576 117.435 9.98667 117.435 10.416C 117.435 10.8453 117.477 11.2607 117.561 11.662C 117.645 12.054 117.785 12.404 117.981 12.712C 118.186 13.0107 118.457 13.2533 118.793 13.44C 119.138 13.6173 119.563 13.706 120.067 13.706ZM 125.074 8.4L 125.116 8.4C 125.181 8.16667 125.298 7.94733 125.466 7.742C 125.643 7.53667 125.853 7.35933 126.096 7.21C 126.348 7.06067 126.623 6.94867 126.922 6.874C 127.23 6.79 127.547 6.75267 127.874 6.762L 127.874 7.294C 127.594 7.25667 127.272 7.28467 126.908 7.378C 126.553 7.47133 126.212 7.67667 125.886 7.994C 125.755 8.134 125.638 8.26933 125.536 8.4C 125.442 8.53067 125.363 8.67533 125.298 8.834C 125.232 8.99267 125.181 9.17 125.144 9.366C 125.106 9.562 125.083 9.79533 125.074 10.066L 125.074 14L 124.542 14L 124.542 6.804L 125.074 6.804L 125.074 8.4ZM 128.02 10.402C 128.02 9.88867 128.09 9.408 128.23 8.96C 128.38 8.50267 128.594 8.10133 128.874 7.756C 129.154 7.41067 129.5 7.14 129.91 6.944C 130.321 6.73867 130.792 6.636 131.324 6.636C 131.856 6.636 132.328 6.73867 132.738 6.944C 133.149 7.14 133.494 7.41067 133.774 7.756C 134.054 8.10133 134.264 8.50267 134.404 8.96C 134.554 9.408 134.628 9.88867 134.628 10.402C 134.628 10.9153 134.554 11.4007 134.404 11.858C 134.264 12.3153 134.054 12.7167 133.774 13.062C 133.494 13.398 133.149 13.6687 132.738 13.874C 132.328 14.07 131.856 14.168 131.324 14.168C 130.792 14.168 130.321 14.07 129.91 13.874C 129.5 13.6687 129.154 13.398 128.874 13.062C 128.594 12.7167 128.38 12.3153 128.23 11.858C 128.09 11.4007 128.02 10.9153 128.02 10.402ZM 128.552 10.402C 128.552 10.8313 128.613 11.2467 128.734 11.648C 128.856 12.04 129.033 12.39 129.266 12.698C 129.5 13.006 129.789 13.2533 130.134 13.44C 130.48 13.6173 130.876 13.706 131.324 13.706C 131.772 13.706 132.169 13.6173 132.514 13.44C 132.86 13.2533 133.149 13.006 133.382 12.698C 133.616 12.39 133.793 12.04 133.914 11.648C 134.036 11.2467 134.096 10.8313 134.096 10.402C 134.096 9.97267 134.036 9.562 133.914 9.17C 133.793 8.76867 133.616 8.414 133.382 8.106C 133.149 7.798 132.86 7.55533 132.514 7.378C 132.169 7.19133 131.772 7.098 131.324 7.098C 130.876 7.098 130.48 7.19133 130.134 7.378C 129.789 7.55533 129.5 7.798 129.266 8.106C 129.033 8.414 128.856 8.76867 128.734 9.17C 128.613 9.562 128.552 9.97267 128.552 10.402ZM 135.92 5.446L 135.92 4.004L 136.452 4.004L 136.452 5.446L 135.92 5.446ZM 136.452 6.804L 136.452 14.77C 136.452 15.0127 136.433 15.2413 136.396 15.456C 136.358 15.68 136.284 15.8713 136.172 16.03C 136.069 16.198 135.92 16.3287 135.724 16.422C 135.537 16.5247 135.29 16.576 134.982 16.576L 134.758 16.576C 134.72 16.576 134.683 16.576 134.646 16.576C 134.608 16.576 134.571 16.5713 134.534 16.562L 134.534 16.1C 134.58 16.1093 134.632 16.114 134.688 16.114C 134.744 16.1233 134.809 16.128 134.884 16.128C 135.07 16.128 135.229 16.1047 135.36 16.058C 135.49 16.0207 135.598 15.946 135.682 15.834C 135.766 15.7313 135.826 15.5867 135.864 15.4C 135.901 15.2227 135.92 14.9987 135.92 14.728L 135.92 6.804L 136.452 6.804ZM 138.355 10.472L 138.355 10.556C 138.355 10.976 138.411 11.3773 138.523 11.76C 138.635 12.1427 138.799 12.4787 139.013 12.768C 139.237 13.0573 139.513 13.286 139.839 13.454C 140.175 13.622 140.563 13.706 141.001 13.706C 141.72 13.706 142.289 13.5193 142.709 13.146C 143.129 12.7633 143.419 12.236 143.577 11.564L 144.109 11.564C 143.951 12.404 143.605 13.048 143.073 13.496C 142.551 13.944 141.855 14.168 140.987 14.168C 140.455 14.168 139.989 14.0747 139.587 13.888C 139.195 13.692 138.864 13.4307 138.593 13.104C 138.332 12.768 138.136 12.376 138.005 11.928C 137.875 11.4707 137.809 10.9807 137.809 10.458C 137.809 9.954 137.875 9.47333 138.005 9.016C 138.145 8.54933 138.351 8.14333 138.621 7.798C 138.892 7.44333 139.228 7.16333 139.629 6.958C 140.04 6.74333 140.521 6.636 141.071 6.636C 141.575 6.636 142.019 6.72933 142.401 6.916C 142.793 7.10267 143.12 7.35933 143.381 7.686C 143.643 8.00333 143.839 8.37667 143.969 8.806C 144.109 9.226 144.179 9.67867 144.179 10.164C 144.179 10.2107 144.175 10.2667 144.165 10.332C 144.165 10.388 144.165 10.4347 144.165 10.472L 138.355 10.472ZM 143.633 10.01C 143.615 9.618 143.549 9.24933 143.437 8.904C 143.325 8.54933 143.157 8.24133 142.933 7.98C 142.719 7.70933 142.453 7.49467 142.135 7.336C 141.827 7.17733 141.473 7.098 141.071 7.098C 140.642 7.098 140.264 7.182 139.937 7.35C 139.611 7.50867 139.335 7.72333 139.111 7.994C 138.887 8.25533 138.715 8.56333 138.593 8.918C 138.472 9.27267 138.397 9.63667 138.369 10.01L 143.633 10.01ZM 150.823 9.03C 150.795 8.71267 150.711 8.43267 150.571 8.19C 150.44 7.94733 150.268 7.74667 150.053 7.588C 149.838 7.42933 149.586 7.308 149.297 7.224C 149.017 7.14 148.714 7.098 148.387 7.098C 147.939 7.098 147.542 7.19133 147.197 7.378C 146.852 7.55533 146.562 7.798 146.329 8.106C 146.096 8.40467 145.918 8.75 145.797 9.142C 145.676 9.52467 145.615 9.92133 145.615 10.332C 145.615 10.8173 145.671 11.2653 145.783 11.676C 145.895 12.0867 146.068 12.446 146.301 12.754C 146.534 13.0527 146.824 13.286 147.169 13.454C 147.514 13.622 147.92 13.706 148.387 13.706C 148.723 13.706 149.031 13.65 149.311 13.538C 149.6 13.426 149.852 13.272 150.067 13.076C 150.291 12.88 150.473 12.6467 150.613 12.376C 150.753 12.096 150.846 11.7927 150.893 11.466L 151.425 11.466C 151.369 11.8953 151.252 12.278 151.075 12.614C 150.898 12.95 150.674 13.2347 150.403 13.468C 150.132 13.692 149.824 13.8647 149.479 13.986C 149.134 14.1073 148.77 14.168 148.387 14.168C 147.799 14.168 147.295 14.0653 146.875 13.86C 146.464 13.6453 146.124 13.3607 145.853 13.006C 145.592 12.6513 145.396 12.2453 145.265 11.788C 145.144 11.3213 145.083 10.836 145.083 10.332C 145.083 9.828 145.153 9.352 145.293 8.904C 145.442 8.456 145.657 8.064 145.937 7.728C 146.217 7.392 146.562 7.126 146.973 6.93C 147.384 6.734 147.855 6.636 148.387 6.636C 148.779 6.636 149.143 6.68733 149.479 6.79C 149.824 6.88333 150.128 7.028 150.389 7.224C 150.66 7.42 150.879 7.672 151.047 7.98C 151.215 8.27867 151.318 8.62867 151.355 9.03L 150.823 9.03ZM 155.311 7.266L 153.743 7.266L 153.743 12.292C 153.743 12.5813 153.776 12.81 153.841 12.978C 153.906 13.146 154.004 13.2767 154.135 13.37C 154.275 13.454 154.438 13.5053 154.625 13.524C 154.821 13.5427 155.045 13.5473 155.297 13.538L 155.297 14C 155.026 14.0187 154.76 14.0187 154.499 14C 154.247 13.972 154.023 13.902 153.827 13.79C 153.631 13.6687 153.472 13.4913 153.351 13.258C 153.239 13.0247 153.192 12.7027 153.211 12.292L 153.211 7.266L 151.881 7.266L 151.881 6.804L 153.211 6.804L 153.211 4.564L 153.743 4.564L 153.743 6.804L 155.311 6.804L 155.311 7.266ZM 156.54 11.606C 156.559 11.942 156.633 12.2407 156.764 12.502C 156.895 12.754 157.063 12.9733 157.268 13.16C 157.483 13.3373 157.73 13.4727 158.01 13.566C 158.29 13.6593 158.593 13.706 158.92 13.706C 159.153 13.706 159.401 13.6873 159.662 13.65C 159.933 13.6033 160.18 13.524 160.404 13.412C 160.637 13.3 160.829 13.146 160.978 12.95C 161.127 12.7447 161.202 12.488 161.202 12.18C 161.202 11.7787 161.081 11.4753 160.838 11.27C 160.595 11.0647 160.287 10.906 159.914 10.794C 159.55 10.682 159.153 10.5933 158.724 10.528C 158.304 10.4533 157.907 10.346 157.534 10.206C 157.17 10.066 156.867 9.87 156.624 9.618C 156.381 9.35667 156.26 8.97867 156.26 8.484C 156.26 8.12933 156.339 7.83533 156.498 7.602C 156.657 7.35933 156.857 7.168 157.1 7.028C 157.352 6.888 157.632 6.79 157.94 6.734C 158.248 6.66867 158.556 6.636 158.864 6.636C 159.237 6.636 159.587 6.678 159.914 6.762C 160.241 6.846 160.521 6.98133 160.754 7.168C 160.997 7.35467 161.183 7.59267 161.314 7.882C 161.454 8.17133 161.524 8.52133 161.524 8.932L 160.992 8.932C 160.992 8.60533 160.936 8.32533 160.824 8.092C 160.721 7.85867 160.572 7.672 160.376 7.532C 160.189 7.38267 159.965 7.27533 159.704 7.21C 159.443 7.13533 159.163 7.098 158.864 7.098C 158.621 7.098 158.374 7.12133 158.122 7.168C 157.879 7.21467 157.66 7.294 157.464 7.406C 157.268 7.518 157.105 7.66267 156.974 7.84C 156.853 8.01733 156.792 8.232 156.792 8.484C 156.792 8.77333 156.862 9.00667 157.002 9.184C 157.142 9.36133 157.324 9.506 157.548 9.618C 157.781 9.72067 158.038 9.80467 158.318 9.87C 158.607 9.93533 158.897 10.0007 159.186 10.066C 159.541 10.1313 159.872 10.2107 160.18 10.304C 160.497 10.388 160.768 10.5093 160.992 10.668C 161.225 10.8173 161.407 11.0133 161.538 11.256C 161.669 11.4987 161.734 11.8067 161.734 12.18C 161.734 12.572 161.645 12.894 161.468 13.146C 161.291 13.398 161.067 13.6033 160.796 13.762C 160.525 13.9113 160.222 14.014 159.886 14.07C 159.559 14.1353 159.237 14.168 158.92 14.168C 158.509 14.168 158.127 14.112 157.772 14C 157.427 13.8973 157.123 13.7387 156.862 13.524C 156.601 13.3 156.395 13.0293 156.246 12.712C 156.097 12.3947 156.017 12.026 156.008 11.606L 156.54 11.606Z"/>
</defs>
</svg>
