<svg width="84" height="84" viewBox="0 0 84 84" version="1.1" xmlns="http://www.w3.org/2000/svg" xmlns:xlink="http://www.w3.org/1999/xlink">
<title>FriendomIcon</title>
<desc>Created using Figma</desc>
<g id="Canvas" transform="translate(-739 -1456)">
<g id="FriendomIcon">
<g id="Rectangle" filter="url(#filter0_d)">
<use xlink:href="#path0_fill" transform="translate(749 1464)" fill="#FFFFFF"/>
</g>
<g id="Group 2">
<g id="Ellipse">
<use xlink:href="#path1_fill" transform="translate(766.116 1492.28)" fill="#F2C94C"/>
</g>
<g id="Ellipse">
<use xlink:href="#path1_fill" transform="translate(777.279 1492.28)" fill="#56CCF2"/>
</g>
<g id="Ellipse">
<use xlink:href="#path1_fill" transform="translate(788.442 1492.28)" fill="#EB5757"/>
</g>
</g>
</g>
</g>
<defs>
<filter id="filter0_d" filterUnits="userSpaceOnUse" x="739" y="1456" width="84" height="84" color-interpolation-filters="sRGB">
<feFlood flood-opacity="0" result="BackgroundImageFix"/>
<feColorMatrix in="SourceAlpha" type="matrix" values="0 0 0 0 0 0 0 0 0 0 0 0 0 0 0 0 0 0 255 0"/>
<feOffset dx="0" dy="2"/>
<feGaussianBlur stdDeviation="5"/>
<feColorMatrix type="matrix" values="0 0 0 0 0 0 0 0 0 0 0 0 0 0 0 0 0 0 0.25 0"/>
<feBlend mode="normal" in2="BackgroundImageFix" result="effect1_dropShadow"/>
<feBlend mode="normal" in="SourceGraphic" in2="effect1_dropShadow" result="shape"/>
</filter>
<path id="path0_fill" d="M 0 10C 0 4.47715 4.47715 0 10 0L 54 0C 59.5228 0 64 4.47715 64 10L 64 54C 64 59.5228 59.5228 64 54 64L 10 64C 4.47715 64 0 59.5228 0 54L 0 10Z"/>
<path id="path1_fill" d="M 7.44186 3.72093C 7.44186 5.77594 5.77594 7.44186 3.72093 7.44186C 1.66592 7.44186 0 5.77594 0 3.72093C 0 1.66592 1.66592 0 3.72093 0C 5.77594 0 7.44186 1.66592 7.44186 3.72093Z"/>
</defs>
</svg>
