<svg viewBox="0 0 95 248" version="1.1" xmlns="http://www.w3.org/2000/svg" xmlns:xlink="http://www.w3.org/1999/xlink">
<title>Rocket</title>
<desc>Created using Figma</desc>
<g id="Canvas" transform="translate(-37 0)">
<g id="Rocket">
<g id="Ellipse">
<use xlink:href="#path0_fill" transform="translate(64 192)" fill="#4F4F4F"/>
<use xlink:href="#path0_fill" transform="translate(64 192)" fill="url(#paint1_linear)"/>
<use xlink:href="#path0_fill" transform="translate(64 192)" fill="url(#paint2_linear)"/>
<use xlink:href="#path0_fill" transform="translate(64 192)" fill="url(#paint3_linear)"/>
</g>
<g id="Vector" filter="url(#filter0_d)">
<use xlink:href="#path1_fill" transform="translate(57 1.31947e-13)" fill="#FFFFFF"/>
<use xlink:href="#path1_fill" transform="translate(57 1.31947e-13)" fill="url(#paint5_linear)"/>
</g>
<g id="NoRocketLab">
<use xlink:href="#path2_fill" transform="matrix(-4.37114e-08 1 -1 -4.37114e-08 92 92.997)" fill="#9B9B9B"/>
</g>
<g id="norocketlab">
<g id="Canvas">
<g id="norocketlab">
<g id="Vector">
<use xlink:href="#path3_fill" transform="matrix(0.707107 0.707107 -0.707107 0.707107 80.2474 55.997)" fill="url(#paint7_linear)" fill-opacity="0.3"/>
</g>
</g>
</g>
</g>
</g>
</g>
<defs>
<filter id="filter0_d" filterUnits="userSpaceOnUse" x="37" y="0" width="95" height="248" color-interpolation-filters="sRGB">
<feFlood flood-opacity="0" result="BackgroundImageFix"/>
<feColorMatrix in="SourceAlpha" type="matrix" values="0 0 0 0 0 0 0 0 0 0 0 0 0 0 0 0 0 0 255 0"/>
<feOffset dx="0" dy="20"/>
<feGaussianBlur stdDeviation="10"/>
<feColorMatrix type="matrix" values="0 0 0 0 0 0 0 0 0 0 0 0 0 0 0 0 0 0 0.25 0"/>
<feBlend mode="normal" in2="BackgroundImageFix" result="effect1_dropShadow"/>
<feBlend mode="normal" in="SourceGraphic" in2="effect1_dropShadow" result="shape"/>
</filter>
<linearGradient id="paint1_linear" x1="0" y1="0" x2="1" y2="0" gradientUnits="userSpaceOnUse" gradientTransform="matrix(11.2281 15.2308 -32.0648 23.0059 27.9622 -8.73372)">
<stop offset="0"/>
<stop offset="1" stop-color="#000000" stop-opacity="0"/>
</linearGradient>
<linearGradient id="paint2_linear" x1="0" y1="0" x2="1" y2="0" gradientUnits="userSpaceOnUse" gradientTransform="matrix(-11.9298 10.3846 -21.8623 -24.4438 43.2119 17.7604)">
<stop offset="0"/>
<stop offset="1" stop-color="#000000" stop-opacity="0"/>
</linearGradient>
<linearGradient id="paint3_linear" x1="0" y1="0" x2="1" y2="0" gradientUnits="userSpaceOnUse" gradientTransform="matrix(4.89282e-07 -6.23077 13.1174 1.6475e-06 13.7922 19.3846)">
<stop offset="0"/>
<stop offset="1" stop-color="#000000" stop-opacity="0"/>
</linearGradient>
<linearGradient id="paint5_linear" x1="0" y1="0" x2="1" y2="0" gradientUnits="userSpaceOnUse" gradientTransform="matrix(-54 0.499995 -0.131677 -14.2213 54.0658 143.108)">
<stop offset="0" stop-color="#FFFFFF"/>
<stop offset="0.98895" stop-color="#EDEDED"/>
</linearGradient>
<linearGradient id="paint7_linear" x1="0" y1="0" x2="1" y2="0" gradientUnits="userSpaceOnUse" gradientTransform="matrix(21.5671 6.34325 -12.1773 41.4028 12.2773 -34.9109)">
<stop offset="0.0110497" stop-color="#4F4F4F"/>
<stop offset="1" stop-color="#828282"/>
</linearGradient>
<path id="path0_fill" d="M 40 11C 40 11 31 16.5 20 16.5C 9 16.5 0 11 0 11L 15.4386 0L 23.8596 0L 40 11Z"/>
<path id="path1_fill" d="M 54.5 193.622C 54.5 212.122 0 211.5 0 193.622L 0 35.622C 0 20.997 19.5 0 27.5 0C 35.5 0 54.5 22.997 54.5 35.622L 54.5 193.622Z"/>
<path id="path2_fill" d="M 0.882 4.004L 1.652 4.004L 7.966 13.174L 7.994 13.174L 7.994 4.004L 8.61 4.004L 8.61 14L 7.882 14L 1.526 4.76L 1.498 4.76L 1.498 14L 0.882 14L 0.882 4.004ZM 9.93628 10.402C 9.93628 9.88867 10.0063 9.408 10.1463 8.96C 10.2956 8.50267 10.5103 8.10133 10.7903 7.756C 11.0703 7.41067 11.4156 7.14 11.8263 6.944C 12.2369 6.73867 12.7083 6.636 13.2403 6.636C 13.7723 6.636 14.2436 6.73867 14.6543 6.944C 15.0649 7.14 15.4103 7.41067 15.6903 7.756C 15.9703 8.10133 16.1803 8.50267 16.3203 8.96C 16.4696 9.408 16.5443 9.88867 16.5443 10.402C 16.5443 10.9153 16.4696 11.4007 16.3203 11.858C 16.1803 12.3153 15.9703 12.7167 15.6903 13.062C 15.4103 13.398 15.0649 13.6687 14.6543 13.874C 14.2436 14.07 13.7723 14.168 13.2403 14.168C 12.7083 14.168 12.2369 14.07 11.8263 13.874C 11.4156 13.6687 11.0703 13.398 10.7903 13.062C 10.5103 12.7167 10.2956 12.3153 10.1463 11.858C 10.0063 11.4007 9.93628 10.9153 9.93628 10.402ZM 10.4683 10.402C 10.4683 10.8313 10.5289 11.2467 10.6503 11.648C 10.7716 12.04 10.9489 12.39 11.1823 12.698C 11.4156 13.006 11.7049 13.2533 12.0503 13.44C 12.3956 13.6173 12.7923 13.706 13.2403 13.706C 13.6883 13.706 14.0849 13.6173 14.4303 13.44C 14.7756 13.2533 15.0649 13.006 15.2983 12.698C 15.5316 12.39 15.7089 12.04 15.8303 11.648C 15.9516 11.2467 16.0123 10.8313 16.0123 10.402C 16.0123 9.97267 15.9516 9.562 15.8303 9.17C 15.7089 8.76867 15.5316 8.414 15.2983 8.106C 15.0649 7.798 14.7756 7.55533 14.4303 7.378C 14.0849 7.19133 13.6883 7.098 13.2403 7.098C 12.7923 7.098 12.3956 7.19133 12.0503 7.378C 11.7049 7.55533 11.4156 7.798 11.1823 8.106C 10.9489 8.414 10.7716 8.76867 10.6503 9.17C 10.5289 9.562 10.4683 9.97267 10.4683 10.402ZM 17.8898 4.004L 22.0618 4.004C 22.5005 4.004 22.9111 4.05067 23.2938 4.144C 23.6765 4.228 24.0125 4.37267 24.3018 4.578C 24.5911 4.774 24.8151 5.03533 24.9738 5.362C 25.1418 5.68867 25.2258 6.09467 25.2258 6.58C 25.2258 7.252 25.0345 7.82133 24.6518 8.288C 24.2785 8.74533 23.7558 9.03 23.0838 9.142L 23.0838 9.17C 23.5411 9.226 23.9005 9.34733 24.1618 9.534C 24.4325 9.72067 24.6331 9.94933 24.7638 10.22C 24.8945 10.4907 24.9785 10.7893 25.0158 11.116C 25.0531 11.4427 25.0718 11.7693 25.0718 12.096C 25.0718 12.292 25.0718 12.4833 25.0718 12.67C 25.0718 12.8567 25.0811 13.034 25.0998 13.202C 25.1185 13.3607 25.1465 13.51 25.1838 13.65C 25.2305 13.79 25.2911 13.9067 25.3658 14L 24.6798 14C 24.5491 13.7667 24.4745 13.496 24.4558 13.188C 24.4465 12.8707 24.4418 12.544 24.4418 12.208C 24.4418 11.872 24.4278 11.5407 24.3998 11.214C 24.3718 10.878 24.2831 10.5793 24.1338 10.318C 23.9845 10.0567 23.7465 9.84667 23.4198 9.688C 23.1025 9.52933 22.6498 9.45 22.0618 9.45L 18.5058 9.45L 18.5058 14L 17.8898 14L 17.8898 4.004ZM 22.0618 8.918C 22.4258 8.918 22.7618 8.876 23.0698 8.792C 23.3871 8.69867 23.6578 8.55867 23.8818 8.372C 24.1058 8.18533 24.2831 7.94733 24.4138 7.658C 24.5445 7.36867 24.6098 7.02333 24.6098 6.622C 24.6098 6.24867 24.5398 5.93133 24.3998 5.67C 24.2598 5.39933 24.0731 5.18 23.8398 5.012C 23.6065 4.844 23.3358 4.72267 23.0278 4.648C 22.7198 4.57333 22.3978 4.536 22.0618 4.536L 18.5058 4.536L 18.5058 8.918L 22.0618 8.918ZM 26.2742 10.402C 26.2742 9.88867 26.3442 9.408 26.4842 8.96C 26.6335 8.50267 26.8482 8.10133 27.1282 7.756C 27.4082 7.41067 27.7535 7.14 28.1642 6.944C 28.5748 6.73867 29.0462 6.636 29.5782 6.636C 30.1102 6.636 30.5815 6.73867 30.9922 6.944C 31.4028 7.14 31.7482 7.41067 32.0282 7.756C 32.3082 8.10133 32.5182 8.50267 32.6582 8.96C 32.8075 9.408 32.8822 9.88867 32.8822 10.402C 32.8822 10.9153 32.8075 11.4007 32.6582 11.858C 32.5182 12.3153 32.3082 12.7167 32.0282 13.062C 31.7482 13.398 31.4028 13.6687 30.9922 13.874C 30.5815 14.07 30.1102 14.168 29.5782 14.168C 29.0462 14.168 28.5748 14.07 28.1642 13.874C 27.7535 13.6687 27.4082 13.398 27.1282 13.062C 26.8482 12.7167 26.6335 12.3153 26.4842 11.858C 26.3442 11.4007 26.2742 10.9153 26.2742 10.402ZM 26.8062 10.402C 26.8062 10.8313 26.8668 11.2467 26.9882 11.648C 27.1095 12.04 27.2868 12.39 27.5202 12.698C 27.7535 13.006 28.0428 13.2533 28.3882 13.44C 28.7335 13.6173 29.1302 13.706 29.5782 13.706C 30.0262 13.706 30.4228 13.6173 30.7682 13.44C 31.1135 13.2533 31.4028 13.006 31.6362 12.698C 31.8695 12.39 32.0468 12.04 32.1682 11.648C 32.2895 11.2467 32.3502 10.8313 32.3502 10.402C 32.3502 9.97267 32.2895 9.562 32.1682 9.17C 32.0468 8.76867 31.8695 8.414 31.6362 8.106C 31.4028 7.798 31.1135 7.55533 30.7682 7.378C 30.4228 7.19133 30.0262 7.098 29.5782 7.098C 29.1302 7.098 28.7335 7.19133 28.3882 7.378C 28.0428 7.55533 27.7535 7.798 27.5202 8.106C 27.2868 8.414 27.1095 8.76867 26.9882 9.17C 26.8668 9.562 26.8062 9.97267 26.8062 10.402ZM 39.5477 9.03C 39.5197 8.71267 39.4357 8.43267 39.2957 8.19C 39.165 7.94733 38.9924 7.74667 38.7777 7.588C 38.563 7.42933 38.311 7.308 38.0217 7.224C 37.7417 7.14 37.4384 7.098 37.1117 7.098C 36.6637 7.098 36.267 7.19133 35.9217 7.378C 35.5764 7.55533 35.287 7.798 35.0537 8.106C 34.8204 8.40467 34.643 8.75 34.5217 9.142C 34.4004 9.52467 34.3397 9.92133 34.3397 10.332C 34.3397 10.8173 34.3957 11.2653 34.5077 11.676C 34.6197 12.0867 34.7924 12.446 35.0257 12.754C 35.259 13.0527 35.5484 13.286 35.8937 13.454C 36.239 13.622 36.645 13.706 37.1117 13.706C 37.4477 13.706 37.7557 13.65 38.0357 13.538C 38.325 13.426 38.577 13.272 38.7917 13.076C 39.0157 12.88 39.1977 12.6467 39.3377 12.376C 39.4777 12.096 39.571 11.7927 39.6177 11.466L 40.1497 11.466C 40.0937 11.8953 39.977 12.278 39.7997 12.614C 39.6224 12.95 39.3984 13.2347 39.1277 13.468C 38.857 13.692 38.549 13.8647 38.2037 13.986C 37.8584 14.1073 37.4944 14.168 37.1117 14.168C 36.5237 14.168 36.0197 14.0653 35.5997 13.86C 35.189 13.6453 34.8484 13.3607 34.5777 13.006C 34.3164 12.6513 34.1204 12.2453 33.9897 11.788C 33.8684 11.3213 33.8077 10.836 33.8077 10.332C 33.8077 9.828 33.8777 9.352 34.0177 8.904C 34.167 8.456 34.3817 8.064 34.6617 7.728C 34.9417 7.392 35.287 7.126 35.6977 6.93C 36.1084 6.734 36.5797 6.636 37.1117 6.636C 37.5037 6.636 37.8677 6.68733 38.2037 6.79C 38.549 6.88333 38.8524 7.028 39.1137 7.224C 39.3844 7.42 39.6037 7.672 39.7717 7.98C 39.9397 8.27867 40.0424 8.62867 40.0797 9.03L 39.5477 9.03ZM 41.4175 4.004L 41.9495 4.004L 41.9495 10.626L 46.3875 6.804L 47.1575 6.804L 44.0075 9.492L 47.3815 14L 46.6535 14L 43.5875 9.898L 41.9495 11.284L 41.9495 14L 41.4175 14L 41.4175 4.004ZM 47.9979 10.472L 47.9979 10.556C 47.9979 10.976 48.0539 11.3773 48.1659 11.76C 48.2779 12.1427 48.4412 12.4787 48.6559 12.768C 48.8799 13.0573 49.1552 13.286 49.4819 13.454C 49.8179 13.622 50.2052 13.706 50.6439 13.706C 51.3626 13.706 51.9319 13.5193 52.3519 13.146C 52.7719 12.7633 53.0612 12.236 53.2199 11.564L 53.7519 11.564C 53.5932 12.404 53.2479 13.048 52.7159 13.496C 52.1932 13.944 51.4979 14.168 50.6299 14.168C 50.0979 14.168 49.6312 14.0747 49.2299 13.888C 48.8379 13.692 48.5066 13.4307 48.2359 13.104C 47.9746 12.768 47.7786 12.376 47.6479 11.928C 47.5172 11.4707 47.4519 10.9807 47.4519 10.458C 47.4519 9.954 47.5172 9.47333 47.6479 9.016C 47.7879 8.54933 47.9932 8.14333 48.2639 7.798C 48.5346 7.44333 48.8706 7.16333 49.2719 6.958C 49.6826 6.74333 50.1632 6.636 50.7139 6.636C 51.2179 6.636 51.6612 6.72933 52.0439 6.916C 52.4359 7.10267 52.7626 7.35933 53.0239 7.686C 53.2852 8.00333 53.4812 8.37667 53.6119 8.806C 53.7519 9.226 53.8219 9.67867 53.8219 10.164C 53.8219 10.2107 53.8172 10.2667 53.8079 10.332C 53.8079 10.388 53.8079 10.4347 53.8079 10.472L 47.9979 10.472ZM 53.2759 10.01C 53.2572 9.618 53.1919 9.24933 53.0799 8.904C 52.9679 8.54933 52.7999 8.24133 52.5759 7.98C 52.3612 7.70933 52.0952 7.49467 51.7779 7.336C 51.4699 7.17733 51.1152 7.098 50.7139 7.098C 50.2846 7.098 49.9066 7.182 49.5799 7.35C 49.2532 7.50867 48.9779 7.72333 48.7539 7.994C 48.5299 8.25533 48.3572 8.56333 48.2359 8.918C 48.1146 9.27267 48.0399 9.63667 48.0119 10.01L 53.2759 10.01ZM 57.6116 7.266L 56.0436 7.266L 56.0436 12.292C 56.0436 12.5813 56.0763 12.81 56.1416 12.978C 56.207 13.146 56.305 13.2767 56.4356 13.37C 56.5756 13.454 56.739 13.5053 56.9256 13.524C 57.1216 13.5427 57.3456 13.5473 57.5976 13.538L 57.5976 14C 57.327 14.0187 57.061 14.0187 56.7996 14C 56.5476 13.972 56.3236 13.902 56.1276 13.79C 55.9316 13.6687 55.773 13.4913 55.6516 13.258C 55.5396 13.0247 55.493 12.7027 55.5116 12.292L 55.5116 7.266L 54.1816 7.266L 54.1816 6.804L 55.5116 6.804L 55.5116 4.564L 56.0436 4.564L 56.0436 6.804L 57.6116 6.804L 57.6116 7.266ZM 58.6867 4.004L 59.3027 4.004L 59.3027 13.468L 64.9727 13.468L 64.9727 14L 58.6867 14L 58.6867 4.004ZM 70.3627 12.572L 70.3347 12.572C 70.2507 12.7867 70.1294 12.992 69.9707 13.188C 69.812 13.3747 69.616 13.5427 69.3827 13.692C 69.1587 13.8413 68.902 13.958 68.6127 14.042C 68.3234 14.126 68.006 14.168 67.6607 14.168C 66.8954 14.168 66.3027 14.0047 65.8827 13.678C 65.4627 13.342 65.2527 12.8287 65.2527 12.138C 65.2527 11.718 65.3367 11.3773 65.5047 11.116C 65.6727 10.8453 65.8827 10.6353 66.1347 10.486C 66.396 10.3273 66.6807 10.2153 66.9887 10.15C 67.306 10.0847 67.6094 10.038 67.8987 10.01L 68.7247 9.94C 69.1074 9.912 69.406 9.87 69.6207 9.814C 69.8447 9.74867 70.0127 9.66467 70.1247 9.562C 70.2367 9.45 70.3067 9.31 70.3347 9.142C 70.3627 8.974 70.3767 8.764 70.3767 8.512C 70.3767 8.316 70.3394 8.134 70.2647 7.966C 70.19 7.798 70.0734 7.64867 69.9147 7.518C 69.756 7.38733 69.5507 7.28467 69.2987 7.21C 69.0467 7.13533 68.7387 7.098 68.3747 7.098C 67.7307 7.098 67.208 7.25667 66.8067 7.574C 66.4147 7.89133 66.2 8.372 66.1627 9.016L 65.6307 9.016C 65.668 8.22267 65.92 7.63 66.3867 7.238C 66.8627 6.83667 67.5347 6.636 68.4027 6.636C 69.2707 6.636 69.9007 6.80867 70.2927 7.154C 70.694 7.49 70.8947 7.93333 70.8947 8.484L 70.8947 12.67C 70.8947 12.7727 70.8947 12.8753 70.8947 12.978C 70.904 13.0807 70.9227 13.174 70.9507 13.258C 70.9787 13.342 71.0254 13.412 71.0907 13.468C 71.156 13.5147 71.2494 13.538 71.3707 13.538C 71.464 13.538 71.5947 13.524 71.7627 13.496L 71.7627 13.944C 71.6227 13.9813 71.478 14 71.3287 14C 71.114 14 70.9414 13.972 70.8107 13.916C 70.6894 13.86 70.596 13.7853 70.5307 13.692C 70.4654 13.5987 70.4187 13.4913 70.3907 13.37C 70.372 13.2393 70.3627 13.0993 70.3627 12.95L 70.3627 12.572ZM 70.3627 9.912C 70.232 10.0707 70.0314 10.178 69.7607 10.234C 69.4994 10.29 69.2054 10.332 68.8787 10.36L 67.9827 10.444C 67.7214 10.472 67.46 10.514 67.1987 10.57C 66.9374 10.6167 66.6994 10.7007 66.4847 10.822C 66.2794 10.9433 66.1114 11.1113 65.9807 11.326C 65.85 11.5313 65.7847 11.802 65.7847 12.138C 65.7847 12.67 65.9527 13.0667 66.2887 13.328C 66.6247 13.58 67.0867 13.706 67.6747 13.706C 68.2814 13.706 68.762 13.5987 69.1167 13.384C 69.4714 13.16 69.742 12.908 69.9287 12.628C 70.1154 12.3387 70.232 12.0633 70.2787 11.802C 70.3347 11.5313 70.3627 11.3493 70.3627 11.256L 70.3627 9.912ZM 72.7147 4.004L 73.2467 4.004L 73.2467 8.33L 73.2747 8.33C 73.3774 8.05 73.522 7.80733 73.7087 7.602C 73.8954 7.38733 74.11 7.21 74.3527 7.07C 74.5954 6.92067 74.8567 6.81333 75.1367 6.748C 75.4167 6.67333 75.706 6.636 76.0047 6.636C 76.5367 6.636 76.994 6.72933 77.3767 6.916C 77.7687 7.10267 78.0954 7.35933 78.3567 7.686C 78.618 8.01267 78.8094 8.39533 78.9307 8.834C 79.0614 9.26333 79.1267 9.73 79.1267 10.234C 79.1267 11.0927 79.01 11.7833 78.7767 12.306C 78.5434 12.8193 78.2634 13.216 77.9367 13.496C 77.61 13.7667 77.2694 13.944 76.9147 14.028C 76.56 14.1213 76.2567 14.168 76.0047 14.168C 75.5287 14.168 75.1227 14.0933 74.7867 13.944C 74.46 13.7947 74.1894 13.622 73.9747 13.426C 73.76 13.2207 73.5967 13.02 73.4847 12.824C 73.3727 12.628 73.3027 12.4833 73.2747 12.39L 73.2467 12.39L 73.2467 14L 72.7147 14L 72.7147 4.004ZM 76.0047 13.706C 76.4807 13.706 76.882 13.6033 77.2087 13.398C 77.5354 13.1927 77.8014 12.9267 78.0067 12.6C 78.212 12.264 78.3614 11.8907 78.4547 11.48C 78.548 11.06 78.5947 10.6447 78.5947 10.234C 78.5947 9.83267 78.5387 9.44533 78.4267 9.072C 78.324 8.69867 78.1607 8.36733 77.9367 8.078C 77.722 7.77933 77.4514 7.54133 77.1247 7.364C 76.8074 7.18667 76.434 7.098 76.0047 7.098C 75.538 7.098 75.132 7.17733 74.7867 7.336C 74.4414 7.49467 74.1567 7.714 73.9327 7.994C 73.7087 8.274 73.5407 8.60533 73.4287 8.988C 73.3167 9.37067 73.2607 9.786 73.2607 10.234C 73.2607 10.6727 73.312 11.102 73.4147 11.522C 73.5174 11.942 73.676 12.3153 73.8907 12.642C 74.1147 12.9593 74.3994 13.216 74.7447 13.412C 75.09 13.608 75.51 13.706 76.0047 13.706Z"/>
<path id="path3_fill" fill-rule="evenodd" d="M 7.8212 12.6816L 21.0986 5.91647C 21.0909 5.80386 21.087 5.69022 21.087 5.57565C 21.087 3.167 22.8191 1.16287 25.1059 0.740762C 24.7847 0.686918 24.4547 0.658893 24.1182 0.658893C 22.28 0.658892 20.6371 1.49508 19.5493 2.80778C 17.3093 1.04892 14.4852 0 11.4162 0C 6.53796 0 2.27877 2.65005 0 6.5889C 1.69659 9.52145 4.49095 11.7396 7.8212 12.6816ZM 6.32915 6.65481C 6.32915 7.34622 5.7686 7.90672 5.07712 7.90672C 4.38564 7.90672 3.82508 7.34622 3.82508 6.65481C 3.82508 5.9634 4.38564 5.40291 5.07712 5.40291C 5.7686 5.40291 6.32915 5.9634 6.32915 6.65481ZM 20.7465 7.21086L 19.1614 7.21086L 19.1614 8.79589L 20.7465 8.79589L 20.7465 7.21086ZM 17.7789 8.22894L 18.8358 8.22894L 18.8358 9.28576L 17.7789 9.28576L 17.7789 8.22894ZM 22.1997 8.58657L 21.1429 8.58657L 21.1429 9.64326L 22.1997 9.64326L 22.1997 8.58657ZM 19.1614 10.0396L 20.086 10.0396L 20.086 10.9643L 19.1614 10.9643L 19.1614 10.0396ZM 21.5392 10.9643L 20.8786 10.9643L 20.8786 11.6248L 21.5392 11.6248L 21.5392 10.9643ZM 12.9527 10.7001L 14.0094 10.7001L 14.0094 11.7568L 12.9527 11.7568L 12.9527 10.7001ZM 11.1032 12.1533L 10.1785 12.1533L 10.1785 13.0778L 11.1032 13.0778L 11.1032 12.1533ZM 12.2921 12.2854L 12.9527 12.2854L 12.9527 12.9458L 12.2921 12.9458L 12.2921 12.2854ZM 16.3587 9.24701L 15.0376 9.24701L 15.0376 10.5679L 16.3587 10.5679L 16.3587 9.24701ZM 17.1286 9.53395L 18.1854 9.53395L 18.1854 10.5906L 17.1286 10.5906L 17.1286 9.53395ZM 15.8588 11.2285L 14.9341 11.2285L 14.9341 12.1531L 15.8588 12.1531L 15.8588 11.2285ZM 16.436 11.0964L 17.0965 11.0964L 17.0965 11.7569L 16.436 11.7569L 16.436 11.0964ZM 12.3408 11.0964L 11.4162 11.0964L 11.4162 12.021L 12.3408 12.021L 12.3408 11.0964ZM 21.6713 10.1717L 22.1997 10.1717L 22.1997 10.7001L 21.6713 10.7001L 21.6713 10.1717ZM 23.5207 11.4928L 22.9923 11.4928L 22.9923 12.0211L 23.5207 12.0211L 23.5207 11.4928Z"/>
</defs>
</svg>
