<svg viewBox="0 0 153 111" version="1.1" xmlns="http://www.w3.org/2000/svg" xmlns:xlink="http://www.w3.org/1999/xlink">
<title>Surface</title>
<desc>Created using Figma</desc>
<g id="Canvas" transform="translate(-643 -488)">
<g id="Surface">
<g id="Union" filter="url(#filter0_d)">
<use xlink:href="#path0_fill" transform="translate(647.938 489.532)" fill="url(#paint0_linear)"/>
<use xlink:href="#path0_fill" transform="translate(647.938 489.532)" fill="url(#paint1_linear)"/>
</g>
<g id="Vector">
<use xlink:href="#path1_fill" transform="translate(638 486.997)" fill="url(#paint2_linear)"/>
</g>
</g>
</g>
<defs>
<filter id="filter0_d" filterUnits="userSpaceOnUse" x="643" y="489" width="153" height="110" color-interpolation-filters="sRGB">
<feFlood flood-opacity="0" result="BackgroundImageFix"/>
<feColorMatrix in="SourceAlpha" type="matrix" values="0 0 0 0 0 0 0 0 0 0 0 0 0 0 0 0 0 0 255 0"/>
<feOffset dx="0" dy="10"/>
<feGaussianBlur stdDeviation="2"/>
<feColorMatrix type="matrix" values="0 0 0 0 0 0 0 0 0 0 0 0 0 0 0 0 0 0 0.25 0"/>
<feBlend mode="normal" in2="BackgroundImageFix" result="effect1_dropShadow"/>
<feBlend mode="normal" in="SourceGraphic" in2="effect1_dropShadow" result="shape"/>
</filter>
<linearGradient id="paint0_linear" x1="0" y1="0" x2="1" y2="0" gradientUnits="userSpaceOnUse" gradientTransform="matrix(41 -84 145.333 70.9365 -25.6045 50.9968)">
<stop offset="0.0110497" stop-color="#4F4F4F"/>
<stop offset="1" stop-color="#333333"/>
</linearGradient>
<linearGradient id="paint1_linear" x1="0" y1="0" x2="1" y2="0" gradientUnits="userSpaceOnUse" gradientTransform="matrix(95 -29 43.6317 142.931 -1.75372 -8.99764)">
<stop offset="0" stop-color="#3C3C3C"/>
<stop offset="1" stop-color="#000000" stop-opacity="0.36"/>
</linearGradient>
<linearGradient id="paint2_linear" x1="0" y1="0" x2="1" y2="0" gradientUnits="userSpaceOnUse" gradientTransform="matrix(41 -84 145.333 70.9365 -15.6667 48.5317)">
<stop offset="0.0110497" stop-color="#4F4F4F"/>
<stop offset="1" stop-color="#333333"/>
</linearGradient>
<path id="path0_fill" fill-rule="evenodd" d="M 66.5817 1.33726L 5.00433 36.8482C 1.50427 38.8666 -0.161072 42.4781 0.0122681 46.0114C -0.00408936 46.3446 -0.00408936 46.6784 0.0122681 47.0115C -0.00408936 47.3446 -0.00408936 47.6784 0.0122681 48.0115C -0.00408936 48.3446 -0.00408936 48.6784 0.0122681 49.0115C -0.160217 52.529 1.48926 56.1251 4.9646 58.1506L 66.5421 94.0393C 69.6458 95.8482 73.4814 95.8533 76.59 94.0527L 138.545 58.164C 142.036 56.1418 143.693 52.5372 143.52 49.0115C 143.537 48.6784 143.537 48.3446 143.52 48.0114C 143.537 47.6784 143.537 47.3446 143.52 47.0115C 143.537 46.6784 143.537 46.3446 143.52 46.0114C 143.694 42.4701 142.021 38.8501 138.505 36.835L 76.5502 1.32408C 73.4618 -0.446063 69.6653 -0.441027 66.5817 1.33726Z"/>
<path id="path1_fill" d="M 76.5196 2.87216L 14.9422 38.383C 8.28745 42.2207 8.26541 51.8173 14.9025 55.6855L 76.4799 91.5742C 79.5837 93.3831 83.4193 93.3882 86.5278 91.5876L 148.483 55.6989C 155.151 51.8365 155.129 42.2017 148.443 38.3699L 86.488 2.85899C 83.3997 1.08885 79.6032 1.09386 76.5196 2.87216Z"/>
</defs>
</svg>
