<svg width="153" height="110" viewBox="0 0 153 110" version="1.1" xmlns="http://www.w3.org/2000/svg" xmlns:xlink="http://www.w3.org/1999/xlink">
<title>Surface</title>
<desc>Created using Figma</desc>
<g id="Canvas" transform="translate(-5 -173)">
<g id="Surface">
<g id="Vector" filter="url(#filter0_d)">
<use xlink:href="#path0_fill" transform="translate(0 175.997)" fill="url(#paint0_linear)"/>
<use xlink:href="#path0_fill" transform="translate(0 175.997)" fill="url(#paint1_linear)"/>
</g>
<g id="Vector">
<use xlink:href="#path0_fill" transform="translate(0 171.997)" fill="url(#paint2_linear)"/>
</g>
</g>
</g>
<defs>
<filter id="filter0_d" filterUnits="userSpaceOnUse" x="5" y="177" width="153" height="106" color-interpolation-filters="sRGB">
<feFlood flood-opacity="0" result="BackgroundImageFix"/>
<feColorMatrix in="SourceAlpha" type="matrix" values="0 0 0 0 0 0 0 0 0 0 0 0 0 0 0 0 0 0 255 0"/>
<feOffset dx="0" dy="10"/>
<feGaussianBlur stdDeviation="2"/>
<feColorMatrix type="matrix" values="0 0 0 0 0 0 0 0 0 0 0 0 0 0 0 0 0 0 0.25 0"/>
<feBlend mode="normal" in2="BackgroundImageFix" result="effect1_dropShadow"/>
<feBlend mode="normal" in="SourceGraphic" in2="effect1_dropShadow" result="shape"/>
</filter>
<linearGradient id="paint0_linear" x1="0" y1="0" x2="1" y2="0" gradientUnits="userSpaceOnUse" gradientTransform="matrix(120 -70 121.111 207.619 -46.5555 -33.8095)">
<stop offset="0" stop-color="#56CCF2"/>
<stop offset="1" stop-color="#6FA3CF"/>
</linearGradient>
<linearGradient id="paint1_linear" x1="0" y1="0" x2="1" y2="0" gradientUnits="userSpaceOnUse" gradientTransform="matrix(-75.5 54.5 -94.2936 -130.627 170.647 86.8135)">
<stop offset="0.0110497" stop-color="#000000" stop-opacity="0.3"/>
<stop offset="1" stop-color="#000000" stop-opacity="0.1"/>
</linearGradient>
<linearGradient id="paint2_linear" x1="0" y1="0" x2="1" y2="0" gradientUnits="userSpaceOnUse" gradientTransform="matrix(41 -84 145.333 70.9365 -15.6667 48.5317)">
<stop offset="0" stop-color="#56CCF2"/>
<stop offset="1" stop-color="#6FA3CF"/>
</linearGradient>
<path id="path0_fill" d="M 76.5196 2.87216L 14.9422 38.383C 8.28745 42.2207 8.26541 51.8173 14.9025 55.6855L 76.4799 91.5742C 79.5837 93.3831 83.4193 93.3882 86.5278 91.5876L 148.483 55.6989C 155.151 51.8365 155.129 42.2017 148.443 38.3699L 86.488 2.85899C 83.3997 1.08885 79.6032 1.09386 76.5196 2.87216Z"/>
</defs>
</svg>
